<?xml version="1.0" encoding="UTF-8" standalone="no"?>
<!-- Created with Inkscape (http://www.inkscape.org/) -->

<svg
   xmlns:dc="http://purl.org/dc/elements/1.1/"
   xmlns:cc="http://creativecommons.org/ns#"
   xmlns:rdf="http://www.w3.org/1999/02/22-rdf-syntax-ns#"
   xmlns:svg="http://www.w3.org/2000/svg"
   xmlns="http://www.w3.org/2000/svg"
   xmlns:sodipodi="http://sodipodi.sourceforge.net/DTD/sodipodi-0.dtd"
   xmlns:inkscape="http://www.inkscape.org/namespaces/inkscape"
   width="714.7865"
   height="714.7865"
   id="svg4013"
   version="1.1"
   inkscape:version="0.92.0 r"
   sodipodi:docname="icon.svg"
   inkscape:export-filename="/home/tilman/projekte/dienstplanextractor/icon.png"
   inkscape:export-xdpi="68.764587"
   inkscape:export-ydpi="68.764587">
  <defs
     id="defs4015">
    <linearGradient
       id="linearGradient4497">
      <stop
         id="stop4493"
         offset="0" />
      <stop
         id="stop4495"
         stop-color="#fff"
         offset="1" />
    </linearGradient>
  </defs>
  <sodipodi:namedview
     id="base"
     pagecolor="#ffffff"
     bordercolor="#666666"
     borderopacity="1.0"
     inkscape:pageopacity="0.0"
     inkscape:pageshadow="2"
     inkscape:zoom="0.7"
     inkscape:cx="-17.99276"
     inkscape:cy="380.21693"
     inkscape:document-units="mm"
     inkscape:current-layer="layer1"
     showgrid="false"
     units="mm"
     inkscape:window-width="1920"
     inkscape:window-height="1034"
     inkscape:window-x="0"
     inkscape:window-y="0"
     inkscape:window-maximized="1"
     inkscape:snap-bbox="true"
     inkscape:bbox-nodes="true"
     inkscape:snap-bbox-midpoints="true"
     inkscape:snap-bbox-edge-midpoints="true"
     inkscape:bbox-paths="true"
     fit-margin-top="0"
     fit-margin-left="0"
     fit-margin-right="0"
     fit-margin-bottom="0" />
  <metadata
     id="metadata4018">
    <rdf:RDF>
      <cc:Work
         rdf:about="">
        <dc:format>image/svg+xml</dc:format>
        <dc:type
           rdf:resource="http://purl.org/dc/dcmitype/StillImage" />
        <dc:title></dc:title>
      </cc:Work>
    </rdf:RDF>
  </metadata>
  <g
     inkscape:label="Layer 1"
     inkscape:groupmode="layer"
     id="layer1"
     transform="translate(363.15591,-226.57012)">
    <path
       style="opacity:1;fill:#cc0000;fill-opacity:1;fill-rule:nonzero;stroke:#550000;stroke-width:18;stroke-linecap:round;stroke-linejoin:round;stroke-miterlimit:4;stroke-dasharray:none;stroke-dashoffset:0;stroke-opacity:1;paint-order:normal"
       d="m -209.28234,240.05609 v 140.78413 h -140.79429 v 146.59026 h 140.79429 v 140.7841 H -62.684421 V 527.43048 H 78.107062 V 380.84022 H -62.684421 V 240.05609 Z"
       id="rect4553"
       inkscape:connector-curvature="0" />
    <g
       id="g4540"
       transform="matrix(9.8956632,0,0,9.8769263,-208.81816,345.09012)"
       style="stroke-width:1.82070316;stroke-miterlimit:4;stroke-dasharray:none">
      <path
         id="path4501"
         transform="matrix(0.652622,0.00192091,-0.00192091,0.652622,-18.03744,10.80782)"
         d="m 42.12793,-11.97834 h 46.74473 a 2,2 0 0 1 2,2 V 36.4065 a 2,2 0 0 1 -2,2 H 42.12793 a 2,2 0 0 1 -2,-2 V -9.97834 a 2,2 0 0 1 2,-2"
         inkscape:connector-curvature="0"
         style="fill:#b3b3b3;fill-rule:evenodd;stroke:#4c4c4c;stroke-width:2.78981596;stroke-linejoin:round;stroke-miterlimit:4;stroke-dasharray:none" />
      <path
         id="path4503"
         transform="matrix(0.652622,0.00192091,-0.00192091,0.652622,-18.03744,10.80782)"
         d="M 45.8862,-4.42062 H 84.39461"
         inkscape:connector-curvature="0"
         style="fill:none;stroke:#4c4c4c;stroke-width:2.78981596;stroke-linecap:round;stroke-linejoin:round;stroke-miterlimit:4;stroke-dasharray:none" />
      <path
         id="path4507"
         transform="matrix(0.913079,-0.09287875,0.09287875,0.913079,-37.5354,18.49238)"
         d="m 74.4671,33.68199 c 13.07486,19.18734 18.50438,19.74646 21.31523,17.26435 2.6309,-2.842 3.59689,-7.6241 -17.27683,-20.04036 L 74.4671,33.682 Z"
         inkscape:connector-curvature="0"
         style="fill:#b3b3b3;fill-rule:evenodd;stroke:#333333;stroke-width:1.98378912;stroke-linecap:round;stroke-linejoin:round;stroke-miterlimit:4;stroke-dasharray:none" />
      <path
         id="path4509"
         transform="matrix(1.058706,-0.107692,0.107692,1.058706,33.31326,-51.55973)"
         d="m -1.9794,76.19513 a 15.47535,15.47535 0 1 0 -30.95069,0 15.47535,15.47535 0 1 0 30.95069,0 z"
         inkscape:connector-curvature="0"
         style="fill:#b3b3b3;fill-rule:evenodd;stroke-width:1.7109152;stroke-miterlimit:4;stroke-dasharray:none" />
      <path
         id="path4511"
         transform="matrix(0.975192,0.00287115,-0.00287115,0.975192,-40.42607,17.15873)"
         d="M 51.39537,2.48408 79.66661,2.76612"
         inkscape:connector-curvature="0"
         style="fill:none;stroke:#4c4c4c;stroke-width:1.8670121;stroke-linecap:round;stroke-linejoin:round;stroke-miterlimit:4;stroke-dasharray:none" />
      <path
         id="path4517"
         d="M 11.761664,27.687896 35.90355,27.924561"
         inkscape:connector-curvature="0"
         style="fill:none;stroke:#4c4c4c;stroke-width:1.82070316;stroke-linecap:round;stroke-linejoin:round;stroke-miterlimit:4;stroke-dasharray:none" />
      <path
         id="path4519"
         transform="matrix(1.058706,-0.107692,0.107692,1.058706,34.51445,-51.10447)"
         d="m -18.3125,57.96875 c -9.80888,0 -17.78125,7.97237 -17.78125,17.78125 0,9.80888 7.97237,17.75 17.78125,17.75 9.80888,0 17.78125,-7.94112 17.78125,-17.75 0,-9.80888 -7.97237,-17.78125 -17.78125,-17.78125 z m -0.09375,3.90625 c 7.7217,0 13.96875,6.24705 13.96875,13.96875 0,7.7217 -6.24705,14 -13.96875,14 -7.7217,0 -14,-6.2783 -14,-14 0,-7.7217 6.2783,-13.96875 14,-13.96875 z"
         inkscape:connector-curvature="0"
         style="fill:#7f7f7f;fill-rule:evenodd;stroke:#333333;stroke-width:1.7109152;stroke-miterlimit:4;stroke-dasharray:none" />
    </g>
    <path
       id="path4517-6"
       d="m -95.472278,683.045 176.061306,2.33752"
       inkscape:connector-curvature="0"
       style="fill:none;stroke:#4c4c4c;stroke-width:18;stroke-linecap:round;stroke-linejoin:round;stroke-miterlimit:4;stroke-dasharray:none" />
  </g>
</svg>
