<?xml version="1.0" encoding="UTF-8" standalone="no"?>
<!-- Created with Inkscape (http://www.inkscape.org/) -->

<svg
   xmlns:dc="http://purl.org/dc/elements/1.1/"
   xmlns:cc="http://creativecommons.org/ns#"
   xmlns:rdf="http://www.w3.org/1999/02/22-rdf-syntax-ns#"
   xmlns:svg="http://www.w3.org/2000/svg"
   xmlns="http://www.w3.org/2000/svg"
   xmlns:xlink="http://www.w3.org/1999/xlink"
   xmlns:sodipodi="http://sodipodi.sourceforge.net/DTD/sodipodi-0.dtd"
   xmlns:inkscape="http://www.inkscape.org/namespaces/inkscape"
   version="1.0"
   width="96"
   height="96"
   id="svg2408"
   sodipodi:docname="icon2.svg"
   inkscape:version="0.92.0 r">
  <sodipodi:namedview
     pagecolor="#ffffff"
     bordercolor="#666666"
     borderopacity="1"
     objecttolerance="10"
     gridtolerance="10"
     guidetolerance="10"
     inkscape:pageopacity="0"
     inkscape:pageshadow="2"
     inkscape:window-width="1920"
     inkscape:window-height="1034"
     id="namedview93"
     showgrid="false"
     inkscape:zoom="3.4766083"
     inkscape:cx="102.80136"
     inkscape:cy="29.460562"
     inkscape:window-x="0"
     inkscape:window-y="0"
     inkscape:window-maximized="1"
     inkscape:current-layer="svg2408" />
  <defs
     id="defs2410">
    <linearGradient
       id="linearGradient3637">
      <stop
         id="stop3639"
         style="stop-color:#f0f0f0;stop-opacity:1"
         offset="0" />
      <stop
         id="stop3641"
         style="stop-color:#aaaaaa;stop-opacity:1"
         offset="1" />
    </linearGradient>
    <linearGradient
       x1="45.447727"
       y1="92.539597"
       x2="45.447727"
       y2="7.0165396"
       id="ButtonShadow"
       gradientUnits="userSpaceOnUse"
       gradientTransform="scale(1.0058652,0.994169)">
      <stop
         id="stop3750"
         style="stop-color:#000000;stop-opacity:1"
         offset="0" />
      <stop
         id="stop3752"
         style="stop-color:#000000;stop-opacity:0.58823532"
         offset="1" />
    </linearGradient>
    <linearGradient
       id="linearGradient3737">
      <stop
         id="stop3739"
         style="stop-color:#ffffff;stop-opacity:1"
         offset="0" />
      <stop
         id="stop3741"
         style="stop-color:#ffffff;stop-opacity:0"
         offset="1" />
    </linearGradient>
    <linearGradient
       id="linearGradient3700">
      <stop
         id="stop3702"
         style="stop-color:#2276c5;stop-opacity:1"
         offset="0" />
      <stop
         id="stop3704"
         style="stop-color:#68baf4;stop-opacity:1"
         offset="1" />
    </linearGradient>
    <filter
       color-interpolation-filters="sRGB"
       id="filter3174">
      <feGaussianBlur
         id="feGaussianBlur3176"
         stdDeviation="1.71" />
    </filter>
    <linearGradient
       x1="36.357143"
       y1="6"
       x2="36.357143"
       y2="63.893143"
       id="linearGradient3188"
       xlink:href="#linearGradient3737"
       gradientUnits="userSpaceOnUse" />
    <filter
       x="-0.192"
       y="-0.192"
       width="1.3839999"
       height="1.3839999"
       color-interpolation-filters="sRGB"
       id="filter3794">
      <feGaussianBlur
         id="feGaussianBlur3796"
         stdDeviation="5.28" />
    </filter>
    <linearGradient
       x1="48"
       y1="20.220806"
       x2="48"
       y2="138.66119"
       id="linearGradient3613"
       xlink:href="#linearGradient3737"
       gradientUnits="userSpaceOnUse" />
    <radialGradient
       cx="48"
       cy="90.171875"
       r="42"
       fx="48"
       fy="90.171875"
       id="radialGradient3619"
       xlink:href="#linearGradient3737"
       gradientUnits="userSpaceOnUse"
       gradientTransform="matrix(1.1573129,0,0,0.99590774,-7.5510206,0.19713193)" />
    <clipPath
       id="clipPath3613">
      <rect
         width="84"
         height="84"
         rx="6"
         ry="6"
         x="6"
         y="6"
         id="rect3615"
         style="fill:#ffffff;fill-opacity:1;fill-rule:nonzero;stroke:none" />
    </clipPath>
    <linearGradient
       x1="48"
       y1="90"
       x2="48"
       y2="5.9877172"
       id="linearGradient2843"
       xlink:href="#linearGradient3700"
       gradientUnits="userSpaceOnUse"
       gradientTransform="translate(0,100)" />
    <clipPath
       id="clipPath3625">
      <path
         d="M 0,0 0,96 96,96 96,0 0,0 z m 12,6 72,0 c 3.324,0 6,2.676 6,6 l 0,72 c 0,3.324 -2.676,6 -6,6 L 12,90 C 8.676,90 6,87.324 6,84 L 6,12 C 6,8.676 8.676,6 12,6 z"
         inkscape:connector-curvature="0"
         id="path3627"
         style="fill:#ffffff;fill-opacity:1;stroke:none" />
    </clipPath>
    <linearGradient
       x1="44.512066"
       y1="6"
       x2="44.512066"
       y2="90.015434"
       id="linearGradient3643"
       xlink:href="#linearGradient3637"
       gradientUnits="userSpaceOnUse" />
    <clipPath
       id="clipPath3649">
      <rect
         width="76"
         height="76"
         rx="4"
         ry="4"
         x="10"
         y="10"
         id="rect3651"
         style="fill:#ffffff;fill-opacity:1;fill-rule:nonzero;stroke:none" />
    </clipPath>
    <filter
       color-interpolation-filters="sRGB"
       id="filter3657">
      <feGaussianBlur
         id="feGaussianBlur3659"
         stdDeviation="1.14" />
    </filter>
    <linearGradient
       x1="45.447727"
       y1="92.539597"
       x2="45.447727"
       y2="7.0165396"
       id="ButtonShadow-0"
       gradientUnits="userSpaceOnUse"
       gradientTransform="matrix(1.0058652,0,0,0.994169,100,0)">
      <stop
         id="stop3750-8"
         style="stop-color:#000000;stop-opacity:1"
         offset="0" />
      <stop
         id="stop3752-5"
         style="stop-color:#000000;stop-opacity:0.58823532"
         offset="1" />
    </linearGradient>
    <linearGradient
       x1="32.251034"
       y1="6.1317081"
       x2="32.251034"
       y2="90.238609"
       id="linearGradient3780"
       xlink:href="#ButtonShadow-0"
       gradientUnits="userSpaceOnUse"
       gradientTransform="matrix(1.0238095,0,0,-1.0119048,-1.1428571,98.071429)" />
    <linearGradient
       x1="32.251034"
       y1="6.1317081"
       x2="32.251034"
       y2="90.238609"
       id="linearGradient3772"
       xlink:href="#ButtonShadow-0"
       gradientUnits="userSpaceOnUse"
       gradientTransform="matrix(1.0238095,0,0,-1.0119048,-1.1428571,98.071429)" />
    <linearGradient
       x1="32.251034"
       y1="6.1317081"
       x2="32.251034"
       y2="90.238609"
       id="linearGradient3725"
       xlink:href="#ButtonShadow-0"
       gradientUnits="userSpaceOnUse"
       gradientTransform="matrix(1.0238095,0,0,-1.0119048,-1.1428571,98.071429)" />
    <linearGradient
       x1="32.251034"
       y1="6.1317081"
       x2="32.251034"
       y2="90.238609"
       id="linearGradient3721"
       xlink:href="#ButtonShadow-0"
       gradientUnits="userSpaceOnUse"
       gradientTransform="matrix(1,0,0,-1,0,97)" />
    <linearGradient
       x1="32.251034"
       y1="6.1317081"
       x2="32.251034"
       y2="90.238609"
       id="linearGradient3199"
       xlink:href="#ButtonShadow-0"
       gradientUnits="userSpaceOnUse"
       gradientTransform="matrix(1.0238095,0,0,-1.0119048,-1.1428571,98.071429)" />
    <linearGradient
       x1="36.357143"
       y1="6"
       x2="36.357143"
       y2="63.893143"
       id="linearGradient3188-8"
       xlink:href="#linearGradient3737-3"
       gradientUnits="userSpaceOnUse" />
    <linearGradient
       id="linearGradient3737-3">
      <stop
         id="stop3739-6"
         style="stop-color:#ffffff;stop-opacity:1"
         offset="0" />
      <stop
         id="stop3741-1"
         style="stop-color:#ffffff;stop-opacity:0"
         offset="1" />
    </linearGradient>
    <radialGradient
       cx="48"
       cy="90.171875"
       r="42"
       fx="48"
       fy="90.171875"
       id="radialGradient3619-3"
       xlink:href="#linearGradient3737-3"
       gradientUnits="userSpaceOnUse"
       gradientTransform="matrix(1.1573129,0,0,0.99590774,-7.551021,0.1971319)" />
    <linearGradient
       x1="104"
       y1="8"
       x2="120"
       y2="8"
       id="linearGradient3905"
       xlink:href="#linearGradient3637"
       gradientUnits="userSpaceOnUse"
       gradientTransform="translate(-104,104)" />
    <linearGradient
       x1="104"
       y1="8"
       x2="120"
       y2="8"
       id="linearGradient3913"
       xlink:href="#linearGradient3183-0"
       gradientUnits="userSpaceOnUse"
       gradientTransform="translate(-144,104)" />
    <linearGradient
       id="linearGradient3183-0">
      <stop
         id="stop3185-9"
         style="stop-color:#c80000;stop-opacity:1"
         offset="0" />
      <stop
         id="stop3187-6"
         style="stop-color:#f3604d;stop-opacity:1"
         offset="1" />
    </linearGradient>
    <linearGradient
       x1="10.710332"
       y1="1.9963325"
       x2="10.710332"
       y2="18.974037"
       id="linearGradient3018"
       xlink:href="#linearGradient3637"
       gradientUnits="userSpaceOnUse"
       gradientTransform="matrix(2.819164,0,0,2.819164,15.399593,18.515788)" />
    <linearGradient
       x1="27"
       y1="48"
       x2="69"
       y2="48"
       id="linearGradient3702"
       xlink:href="#linearGradient3183-0"
       gradientUnits="userSpaceOnUse"
       gradientTransform="rotate(-90,48,48)" />
    <linearGradient
       inkscape:collect="always"
       xlink:href="#linearGradient3637"
       id="linearGradient4617"
       gradientUnits="userSpaceOnUse"
       gradientTransform="translate(-104,104)"
       x1="104"
       y1="8"
       x2="120"
       y2="8" />
    <linearGradient
       inkscape:collect="always"
       xlink:href="#linearGradient3183-0"
       id="linearGradient4619"
       gradientUnits="userSpaceOnUse"
       gradientTransform="translate(-144,104)"
       x1="104"
       y1="8"
       x2="120"
       y2="8" />
  </defs>
  <metadata
     id="metadata2413">
    <rdf:RDF>
      <cc:Work
         rdf:about="">
        <dc:format>image/svg+xml</dc:format>
        <dc:type
           rdf:resource="http://purl.org/dc/dcmitype/StillImage" />
        <dc:title></dc:title>
      </cc:Work>
    </rdf:RDF>
  </metadata>
  <g
     id="layer2"
     style="display:none">
    <rect
       width="86"
       height="85"
       rx="6"
       ry="6"
       x="5"
       y="7"
       clip-path="url(#clipPath3625)"
       id="rect3745"
       style="opacity:0.9;fill:url(#ButtonShadow);fill-opacity:1;fill-rule:nonzero;stroke:none;filter:url(#filter3174)" />
  </g>
  <g
     id="layer3">
    <path
       d="M 12,3.96875 C 6.4889098,3.96875 1.96875,8.4889098 1.96875,14 l 0,71 c 0,5.51109 4.5201597,10.03125 10.03125,10.03125 l 72,0 c 5.51109,0 10.03125,-4.52016 10.03125,-10.03125 l 0,-71 C 94.03125,8.4889097 89.51109,3.96875 84,3.96875 l -72,0 z M 12,6 84,6 c 3.324,0 6,2.676 6,6 l 0,72 c 0,3.324 -2.676,6 -6,6 L 12,90 C 8.676,90 6,87.324 6,84 L 6,12 C 6,8.676 8.676,6 12,6 z"
       inkscape:connector-curvature="0"
       id="path3786"
       style="opacity:0.07999998;fill:url(#linearGradient3199);fill-opacity:1;fill-rule:nonzero;stroke:none;display:inline" />
    <path
       d="M 12,4.96875 C 7.0283671,4.96875 2.96875,9.0283671 2.96875,14 l 0,71 c 0,4.971633 4.059617,9.03125 9.03125,9.03125 l 72,0 c 4.971633,0 9.03125,-4.059617 9.03125,-9.03125 l 0,-71 C 93.03125,9.028367 88.971633,4.96875 84,4.96875 l -72,0 z M 12,6 84,6 c 3.324,0 6,2.676 6,6 l 0,72 c 0,3.324 -2.676,6 -6,6 L 12,90 C 8.676,90 6,87.324 6,84 L 6,12 C 6,8.676 8.676,6 12,6 z"
       inkscape:connector-curvature="0"
       id="path3778"
       style="opacity:0.1;fill:url(#linearGradient3780);fill-opacity:1;fill-rule:nonzero;stroke:none;display:inline" />
    <path
       d="M 11.1875,6.03125 C 7.159982,6.4419011 4,9.8664375 4,14 l 0,71 c 0,4.409133 3.590867,8 8,8 l 72,0 c 4.409133,0 8,-3.590867 8,-8 L 92,14 C 92,9.8029382 88.741028,6.3539584 84.625,6.03125 87.657886,6.337417 90,8.88375 90,12 l 0,72 c 0,3.324 -2.676,6 -6,6 L 12,90 C 8.676,90 6,87.324 6,84 L 6,12 c 0,-3.11625 2.342114,-5.662583 5.375,-5.96875 -0.06227,0.00488 -0.12563,-0.00631 -0.1875,0 z"
       inkscape:connector-curvature="0"
       id="path3770"
       style="opacity:0.2;fill:url(#linearGradient3772);fill-opacity:1;fill-rule:nonzero;stroke:none;display:inline" />
    <path
       d="M 6.4375,9.75 C 5.5380109,10.927446 5,12.397277 5,14 l 0,71 c 0,3.878 3.122,7 7,7 l 72,0 c 3.878,0 7,-3.122 7,-7 L 91,14 C 91,12.397277 90.461989,10.927446 89.5625,9.75 89.841816,10.444095 90,11.203625 90,12 l 0,72 c 0,3.324 -2.676,6 -6,6 L 12,90 C 8.676,90 6,87.324 6,84 L 6,12 C 6,11.203625 6.1581836,10.444095 6.4375,9.75 z"
       inkscape:connector-curvature="0"
       id="rect3723"
       style="opacity:0.3;fill:url(#linearGradient3725);fill-opacity:1;fill-rule:nonzero;stroke:none;display:inline" />
    <path
       d="m 6,84 0,1 c 0,3.324 2.676,6 6,6 l 72,0 c 3.324,0 6,-2.676 6,-6 l 0,-1 c 0,3.324 -2.676,6 -6,6 L 12,90 C 8.676,90 6,87.324 6,84 z"
       inkscape:connector-curvature="0"
       id="rect3716"
       style="opacity:0.45;fill:url(#linearGradient3721);fill-opacity:1;fill-rule:nonzero;stroke:none;display:inline" />
  </g>
  <g
     id="layer1"
     style="display:none">
    <rect
       width="84"
       height="84"
       rx="6"
       ry="6"
       x="6"
       y="6"
       id="rect2419"
       style="opacity:0.8;fill:#000000;fill-opacity:1;fill-rule:nonzero;stroke:none" />
    <path
       d="m 14,10 c -2.216,0 -4,1.784 -4,4 l 0,68 c 0,2.216 1.784,4 4,4 l 68,0 c 2.216,0 4,-1.784 4,-4 l 0,-68 c 0,-2.216 -1.784,-4 -4,-4 l -68,0 z m 0,3.0625 68,0 c 0.578769,0 0.9375,0.358731 0.9375,0.9375 l 0,68 c 0,0.578769 -0.358731,0.9375 -0.9375,0.9375 l -68,0 c -0.578769,0 -0.9375,-0.358731 -0.9375,-0.9375 l 0,-68 c 0,-0.578769 0.358731,-0.9375 0.9375,-0.9375 z"
       inkscape:connector-curvature="0"
       id="rect3726"
       style="opacity:0.07999998;fill:#000000;fill-opacity:1;fill-rule:nonzero;stroke:none" />
    <path
       d="M 12,6 C 8.676,6 6,8.676 6,12 l 0,72 c 0,3.324 2.676,6 6,6 l 72,0 c 3.324,0 6,-2.676 6,-6 L 90,12 C 90,8.676 87.324,6 84,6 L 12,6 z m 2,4 68,0 c 2.216,0 4,1.784 4,4 l 0,68 c 0,2.216 -1.784,4 -4,4 l -68,0 c -2.216,0 -4,-1.784 -4,-4 l 0,-68 c 0,-2.216 1.784,-4 4,-4 z"
       inkscape:connector-curvature="0"
       id="rect3629"
       style="fill:url(#linearGradient3643);fill-opacity:1;fill-rule:nonzero;stroke:none" />
    <path
       d="M 12,6 C 8.676,6 6,8.676 6,12 l 0,2 0,68 0,2 c 0,0.334721 0.04135,0.6507 0.09375,0.96875 0.0487,0.295596 0.09704,0.596915 0.1875,0.875 0.00988,0.03038 0.020892,0.0636 0.03125,0.09375 0.098865,0.287771 0.2348802,0.547452 0.375,0.8125 0.1445918,0.273507 0.3156161,0.535615 0.5,0.78125 0.1843839,0.245635 0.3737765,0.473472 0.59375,0.6875 0.439947,0.428056 0.94291,0.814526 1.5,1.09375 0.278545,0.139612 0.5734731,0.246947 0.875,0.34375 -0.2562018,-0.100222 -0.4867109,-0.236272 -0.71875,-0.375 -0.00741,-0.0044 -0.023866,0.0045 -0.03125,0 -0.031933,-0.0193 -0.062293,-0.04251 -0.09375,-0.0625 -0.120395,-0.0767 -0.2310226,-0.163513 -0.34375,-0.25 -0.1061728,-0.0808 -0.2132809,-0.161112 -0.3125,-0.25 C 8.4783201,88.557317 8.3087904,88.373362 8.15625,88.1875 8.0486711,88.057245 7.9378561,87.922215 7.84375,87.78125 7.818661,87.74287 7.805304,87.69538 7.78125,87.65625 7.716487,87.553218 7.6510225,87.451733 7.59375,87.34375 7.4927417,87.149044 7.3880752,86.928049 7.3125,86.71875 7.30454,86.69694 7.288911,86.6782 7.28125,86.65625 7.2494249,86.5643 7.2454455,86.469419 7.21875,86.375 7.1884177,86.268382 7.1483606,86.171969 7.125,86.0625 7.0521214,85.720988 7,85.364295 7,85 L 7,83 7,15 7,13 C 7,10.218152 9.2181517,8 12,8 l 2,0 68,0 2,0 c 2.781848,0 5,2.218152 5,5 l 0,2 0,68 0,2 c 0,0.364295 -0.05212,0.720988 -0.125,1.0625 -0.04415,0.206893 -0.08838,0.397658 -0.15625,0.59375 -0.0077,0.02195 -0.0233,0.04069 -0.03125,0.0625 -0.06274,0.173739 -0.138383,0.367449 -0.21875,0.53125 -0.04158,0.0828 -0.07904,0.169954 -0.125,0.25 -0.0546,0.09721 -0.126774,0.18835 -0.1875,0.28125 -0.09411,0.140965 -0.204921,0.275995 -0.3125,0.40625 -0.143174,0.17445 -0.303141,0.346998 -0.46875,0.5 -0.01117,0.0102 -0.01998,0.02115 -0.03125,0.03125 -0.138386,0.125556 -0.285091,0.234436 -0.4375,0.34375 -0.102571,0.07315 -0.204318,0.153364 -0.3125,0.21875 -0.0074,0.0045 -0.02384,-0.0044 -0.03125,0 -0.232039,0.138728 -0.462548,0.274778 -0.71875,0.375 0.301527,-0.0968 0.596455,-0.204138 0.875,-0.34375 0.55709,-0.279224 1.060053,-0.665694 1.5,-1.09375 0.219973,-0.214028 0.409366,-0.441865 0.59375,-0.6875 0.184384,-0.245635 0.355408,-0.507743 0.5,-0.78125 0.14012,-0.265048 0.276135,-0.524729 0.375,-0.8125 0.01041,-0.03078 0.02133,-0.06274 0.03125,-0.09375 0.09046,-0.278085 0.1388,-0.579404 0.1875,-0.875 C 89.95865,84.6507 90,84.334721 90,84 l 0,-2 0,-68 0,-2 C 90,8.676 87.324,6 84,6 L 12,6 z"
       inkscape:connector-curvature="0"
       id="rect3728"
       style="fill:url(#linearGradient3188);fill-opacity:1;fill-rule:nonzero;stroke:none" />
    <path
       d="M 12,90 C 8.676,90 6,87.324 6,84 L 6,82 6,14 6,12 c 0,-0.334721 0.04135,-0.6507 0.09375,-0.96875 0.0487,-0.295596 0.09704,-0.596915 0.1875,-0.875 C 6.29113,10.12587 6.302142,10.09265 6.3125,10.0625 6.411365,9.774729 6.5473802,9.515048 6.6875,9.25 6.8320918,8.976493 7.0031161,8.714385 7.1875,8.46875 7.3718839,8.223115 7.5612765,7.995278 7.78125,7.78125 8.221197,7.353194 8.72416,6.966724 9.28125,6.6875 9.559795,6.547888 9.8547231,6.440553 10.15625,6.34375 9.9000482,6.443972 9.6695391,6.580022 9.4375,6.71875 c -0.00741,0.0044 -0.023866,-0.0045 -0.03125,0 -0.031933,0.0193 -0.062293,0.04251 -0.09375,0.0625 -0.120395,0.0767 -0.2310226,0.163513 -0.34375,0.25 -0.1061728,0.0808 -0.2132809,0.161112 -0.3125,0.25 C 8.4783201,7.442683 8.3087904,7.626638 8.15625,7.8125 8.0486711,7.942755 7.9378561,8.077785 7.84375,8.21875 7.818661,8.25713 7.805304,8.30462 7.78125,8.34375 7.716487,8.446782 7.6510225,8.548267 7.59375,8.65625 7.4927417,8.850956 7.3880752,9.071951 7.3125,9.28125 7.30454,9.30306 7.288911,9.3218 7.28125,9.34375 7.2494249,9.4357 7.2454455,9.530581 7.21875,9.625 7.1884177,9.731618 7.1483606,9.828031 7.125,9.9375 7.0521214,10.279012 7,10.635705 7,11 l 0,2 0,68 0,2 c 0,2.781848 2.2181517,5 5,5 l 2,0 68,0 2,0 c 2.781848,0 5,-2.218152 5,-5 l 0,-2 0,-68 0,-2 C 89,10.635705 88.94788,10.279012 88.875,9.9375 88.83085,9.730607 88.78662,9.539842 88.71875,9.34375 88.71105,9.3218 88.69545,9.30306 88.6875,9.28125 88.62476,9.107511 88.549117,8.913801 88.46875,8.75 88.42717,8.6672 88.38971,8.580046 88.34375,8.5 88.28915,8.40279 88.216976,8.31165 88.15625,8.21875 88.06214,8.077785 87.951329,7.942755 87.84375,7.8125 87.700576,7.63805 87.540609,7.465502 87.375,7.3125 87.36383,7.3023 87.35502,7.29135 87.34375,7.28125 87.205364,7.155694 87.058659,7.046814 86.90625,6.9375 86.803679,6.86435 86.701932,6.784136 86.59375,6.71875 c -0.0074,-0.0045 -0.02384,0.0044 -0.03125,0 -0.232039,-0.138728 -0.462548,-0.274778 -0.71875,-0.375 0.301527,0.0968 0.596455,0.204138 0.875,0.34375 0.55709,0.279224 1.060053,0.665694 1.5,1.09375 0.219973,0.214028 0.409366,0.441865 0.59375,0.6875 0.184384,0.245635 0.355408,0.507743 0.5,0.78125 0.14012,0.265048 0.276135,0.524729 0.375,0.8125 0.01041,0.03078 0.02133,0.06274 0.03125,0.09375 0.09046,0.278085 0.1388,0.579404 0.1875,0.875 C 89.95865,11.3493 90,11.665279 90,12 l 0,2 0,68 0,2 c 0,3.324 -2.676,6 -6,6 l -72,0 z"
       inkscape:connector-curvature="0"
       id="path3615"
       style="opacity:0.6;fill:url(#radialGradient3619);fill-opacity:1;fill-rule:nonzero;stroke:none" />
    <rect
       width="84"
       height="84"
       rx="6"
       ry="6"
       x="6"
       y="106"
       id="rect2841"
       style="fill:url(#linearGradient2843);fill-opacity:1;fill-rule:nonzero;stroke:none" />
    <rect
       width="76"
       height="76"
       rx="4"
       ry="4"
       x="10"
       y="110"
       id="rect3634"
       style="fill:#ff0000;fill-opacity:1;fill-rule:nonzero;stroke:none" />
    <path
       d="m 14,9 c -2.752703,0 -5,2.247297 -5,5 l 0,68 c 0,2.752703 2.247297,5 5,5 l 68,0 c 2.752703,0 5,-2.247297 5,-5 L 87,14 C 87,11.247297 84.752703,9 82,9 L 14,9 z m 0,2 68,0 c 1.679297,0 3,1.320703 3,3 l 0,68 c 0,1.679297 -1.320703,3 -3,3 l -68,0 c -1.679297,0 -3,-1.320703 -3,-3 l 0,-68 c 0,-1.679297 1.320703,-3 3,-3 z"
       inkscape:connector-curvature="0"
       transform="translate(-110,0)"
       clip-path="url(#clipPath3649)"
       id="rect3647"
       style="font-size:medium;font-style:normal;font-variant:normal;font-weight:normal;font-stretch:normal;text-indent:0;text-align:start;text-decoration:none;line-height:normal;letter-spacing:normal;word-spacing:normal;text-transform:none;direction:ltr;block-progression:tb;writing-mode:lr-tb;text-anchor:start;color:#000000;fill:#000000;fill-opacity:1;stroke:none;stroke-width:2;marker:none;visibility:visible;display:inline;overflow:visible;filter:url(#filter3657);enable-background:accumulate;font-family:Abandoned Bitplane;-inkscape-font-specification:Abandoned Bitplane" />
    <path
       d="m 14.089286,10 c -2.216,0 -4,1.784 -4,4 l 0,68 c 0,2.216 1.784,4 4,4 l 68,0 c 2.216,0 4,-1.784 4,-4 l 0,-68 c 0,-2.216 -1.784,-4 -4,-4 l -68,0 z m 0,2 68,0 c 1.140301,0 2,0.859699 2,2 l 0,68 c 0,1.140301 -0.859699,2 -2,2 l -68,0 c -1.140301,0 -2,-0.859699 -2,-2 l 0,-68 c 0,-1.140301 0.859699,-2 2,-2 z"
       inkscape:connector-curvature="0"
       id="path3709"
       style="opacity:0.16000001;fill:#000000;fill-opacity:1;fill-rule:nonzero;stroke:none" />
    <path
       d="m 14,10 c -2.216,0 -4,1.784 -4,4 l 0,68 c 0,2.216 1.784,4 4,4 l 68,0 c 2.216,0 4,-1.784 4,-4 l 0,-68 c 0,-2.216 -1.784,-4 -4,-4 l -68,0 z m 0,1 68,0 c 1.673848,0 3,1.326152 3,3 l 0,68 c 0,1.673848 -1.326152,3 -3,3 l -68,0 c -1.673848,0 -3,-1.326152 -3,-3 l 0,-68 c 0,-1.673848 1.326152,-3 3,-3 z"
       inkscape:connector-curvature="0"
       id="path3707"
       style="opacity:0.36000001;fill:#000000;fill-opacity:1;fill-rule:nonzero;stroke:none" />
  </g>
  <g
     id="layer4"
     style="display:inline">
    <rect
       width="84"
       height="84"
       rx="6"
       ry="6"
       x="6"
       y="6"
       id="rect2419-9"
       style="opacity:0.6;fill:#000000;fill-opacity:1;fill-rule:nonzero;stroke:none;display:inline" />
    <path
       d="M 12,6 C 8.676,6 6,8.676 6,12 l 0,2 0,68 0,2 c 0,0.334721 0.04135,0.6507 0.09375,0.96875 0.0487,0.295596 0.09704,0.596915 0.1875,0.875 0.00988,0.03038 0.020892,0.0636 0.03125,0.09375 0.098865,0.287771 0.2348802,0.547452 0.375,0.8125 0.1445918,0.273507 0.3156161,0.535615 0.5,0.78125 0.1843839,0.245635 0.3737765,0.473472 0.59375,0.6875 0.439947,0.428056 0.94291,0.814526 1.5,1.09375 0.278545,0.139612 0.5734731,0.246947 0.875,0.34375 -0.2562018,-0.100222 -0.4867109,-0.236272 -0.71875,-0.375 -0.00741,-0.0044 -0.023866,0.0045 -0.03125,0 -0.031933,-0.0193 -0.062293,-0.04251 -0.09375,-0.0625 -0.120395,-0.0767 -0.2310226,-0.163513 -0.34375,-0.25 -0.1061728,-0.0808 -0.2132809,-0.161112 -0.3125,-0.25 C 8.4783201,88.557317 8.3087904,88.373362 8.15625,88.1875 8.0486711,88.057245 7.9378561,87.922215 7.84375,87.78125 7.818661,87.74287 7.805304,87.69538 7.78125,87.65625 7.716487,87.553218 7.6510225,87.451733 7.59375,87.34375 7.4927417,87.149044 7.3880752,86.928049 7.3125,86.71875 7.30454,86.69694 7.288911,86.6782 7.28125,86.65625 7.2494249,86.5643 7.2454455,86.469419 7.21875,86.375 7.1884177,86.268382 7.1483606,86.171969 7.125,86.0625 7.0521214,85.720988 7,85.364295 7,85 L 7,83 7,15 7,13 C 7,10.218152 9.2181517,8 12,8 l 2,0 68,0 2,0 c 2.781848,0 5,2.218152 5,5 l 0,2 0,68 0,2 c 0,0.364295 -0.05212,0.720988 -0.125,1.0625 -0.04415,0.206893 -0.08838,0.397658 -0.15625,0.59375 -0.0077,0.02195 -0.0233,0.04069 -0.03125,0.0625 -0.06274,0.173739 -0.138383,0.367449 -0.21875,0.53125 -0.04158,0.0828 -0.07904,0.169954 -0.125,0.25 -0.0546,0.09721 -0.126774,0.18835 -0.1875,0.28125 -0.09411,0.140965 -0.204921,0.275995 -0.3125,0.40625 -0.143174,0.17445 -0.303141,0.346998 -0.46875,0.5 -0.01117,0.0102 -0.01998,0.02115 -0.03125,0.03125 -0.138386,0.125556 -0.285091,0.234436 -0.4375,0.34375 -0.102571,0.07315 -0.204318,0.153364 -0.3125,0.21875 -0.0074,0.0045 -0.02384,-0.0044 -0.03125,0 -0.232039,0.138728 -0.462548,0.274778 -0.71875,0.375 0.301527,-0.0968 0.596455,-0.204138 0.875,-0.34375 0.55709,-0.279224 1.060053,-0.665694 1.5,-1.09375 0.219973,-0.214028 0.409366,-0.441865 0.59375,-0.6875 0.184384,-0.245635 0.355408,-0.507743 0.5,-0.78125 0.14012,-0.265048 0.276135,-0.524729 0.375,-0.8125 0.01041,-0.03078 0.02133,-0.06274 0.03125,-0.09375 0.09046,-0.278085 0.1388,-0.579404 0.1875,-0.875 C 89.95865,84.6507 90,84.334721 90,84 l 0,-2 0,-68 0,-2 C 90,8.676 87.324,6 84,6 L 12,6 z"
       inkscape:connector-curvature="0"
       id="rect3728-4"
       style="opacity:0.01000001;fill:url(#linearGradient3188-8);fill-opacity:1;fill-rule:nonzero;stroke:none;display:inline" />
    <path
       d="M 12,90 C 8.676,90 6,87.324 6,84 L 6,82 6,14 6,12 c 0,-0.334721 0.04135,-0.6507 0.09375,-0.96875 0.0487,-0.295596 0.09704,-0.596915 0.1875,-0.875 C 6.29113,10.12587 6.302142,10.09265 6.3125,10.0625 6.411365,9.774729 6.5473802,9.515048 6.6875,9.25 6.8320918,8.976493 7.0031161,8.714385 7.1875,8.46875 7.3718839,8.223115 7.5612765,7.995278 7.78125,7.78125 8.221197,7.353194 8.72416,6.966724 9.28125,6.6875 9.559795,6.547888 9.8547231,6.440553 10.15625,6.34375 9.9000482,6.443972 9.6695391,6.580022 9.4375,6.71875 c -0.00741,0.0044 -0.023866,-0.0045 -0.03125,0 -0.031933,0.0193 -0.062293,0.04251 -0.09375,0.0625 -0.120395,0.0767 -0.2310226,0.163513 -0.34375,0.25 -0.1061728,0.0808 -0.2132809,0.161112 -0.3125,0.25 C 8.4783201,7.442683 8.3087904,7.626638 8.15625,7.8125 8.0486711,7.942755 7.9378561,8.077785 7.84375,8.21875 7.818661,8.25713 7.805304,8.30462 7.78125,8.34375 7.716487,8.446782 7.6510225,8.548267 7.59375,8.65625 7.4927417,8.850956 7.3880752,9.071951 7.3125,9.28125 7.30454,9.30306 7.288911,9.3218 7.28125,9.34375 7.2494249,9.4357 7.2454455,9.530581 7.21875,9.625 7.1884177,9.731618 7.1483606,9.828031 7.125,9.9375 7.0521214,10.279012 7,10.635705 7,11 l 0,2 0,68 0,2 c 0,2.781848 2.2181517,5 5,5 l 2,0 68,0 2,0 c 2.781848,0 5,-2.218152 5,-5 l 0,-2 0,-68 0,-2 C 89,10.635705 88.94788,10.279012 88.875,9.9375 88.83085,9.730607 88.78662,9.539842 88.71875,9.34375 88.71105,9.3218 88.69545,9.30306 88.6875,9.28125 88.62476,9.107511 88.549117,8.913801 88.46875,8.75 88.42717,8.6672 88.38971,8.580046 88.34375,8.5 88.28915,8.40279 88.216976,8.31165 88.15625,8.21875 88.06214,8.077785 87.951329,7.942755 87.84375,7.8125 87.700576,7.63805 87.540609,7.465502 87.375,7.3125 87.36383,7.3023 87.35502,7.29135 87.34375,7.28125 87.205364,7.155694 87.058659,7.046814 86.90625,6.9375 86.803679,6.86435 86.701932,6.784136 86.59375,6.71875 c -0.0074,-0.0045 -0.02384,0.0044 -0.03125,0 -0.232039,-0.138728 -0.462548,-0.274778 -0.71875,-0.375 0.301527,0.0968 0.596455,0.204138 0.875,0.34375 0.55709,0.279224 1.060053,0.665694 1.5,1.09375 0.219973,0.214028 0.409366,0.441865 0.59375,0.6875 0.184384,0.245635 0.355408,0.507743 0.5,0.78125 0.14012,0.265048 0.276135,0.524729 0.375,0.8125 0.01041,0.03078 0.02133,0.06274 0.03125,0.09375 0.09046,0.278085 0.1388,0.579404 0.1875,0.875 C 89.95865,11.3493 90,11.665279 90,12 l 0,2 0,68 0,2 c 0,3.324 -2.676,6 -6,6 l -72,0 z"
       inkscape:connector-curvature="0"
       id="path3615-6"
       style="opacity:0.15;fill:url(#radialGradient3619-3);fill-opacity:1;fill-rule:nonzero;stroke:none;display:inline" />
  </g>
  <g
     id="layer5"
     style="display:none">
    <rect
       width="66"
       height="66"
       rx="12"
       ry="12"
       x="15"
       y="15"
       clip-path="url(#clipPath3613)"
       id="rect3171"
       style="opacity:0.1;fill:url(#linearGradient3613);fill-opacity:1;fill-rule:nonzero;stroke:#ffffff;stroke-width:0.5;stroke-linecap:round;stroke-linejoin:miter;stroke-miterlimit:4;stroke-opacity:1;stroke-dasharray:none;stroke-dashoffset:0;filter:url(#filter3794)" />
  </g>
  <g
     transform="matrix(1.1045789,-1.1045789,1.1045789,1.1045789,-61.162155,47.72117)"
     id="layer6-3"
     style="display:inline;stroke-width:0.64015961">
    <rect
       width="16"
       height="16"
       x="0"
       y="104"
       transform="matrix(0,1,1,0,0,0)"
       id="rect3897-5"
       style="color:#000000;display:inline;overflow:visible;visibility:visible;fill:url(#linearGradient4617);fill-opacity:1;fill-rule:nonzero;stroke:none;stroke-width:1.28031921;marker:none;enable-background:accumulate" />
    <text
       x="104"
       y="48"
       id="text3907-6"
       xml:space="preserve"
       style="font-style:normal;font-variant:normal;font-weight:normal;font-stretch:normal;font-size:4px;line-height:125%;font-family:'Liberation Sans';-inkscape-font-specification:'Liberation Sans';text-align:start;letter-spacing:0px;word-spacing:0px;writing-mode:lr-tb;text-anchor:start;fill:#000000;fill-opacity:1;stroke:none;stroke-width:0.64015961"><tspan
         x="104"
         y="48"
         id="tspan3909-2"
         style="stroke-width:0.64015961">Shadow opacity : 30, 15, 10, (8)</tspan></text>
    <rect
       width="16"
       height="16"
       x="-40"
       y="104"
       transform="rotate(-90)"
       id="rect3911-9"
       style="color:#000000;display:inline;overflow:visible;visibility:visible;fill:url(#linearGradient4619);fill-opacity:1;fill-rule:nonzero;stroke:none;stroke-width:1.28031921;marker:none;enable-background:accumulate" />
    <text
       x="124"
       y="32"
       id="text3951-1"
       xml:space="preserve"
       style="font-style:normal;font-variant:normal;font-weight:normal;font-stretch:normal;font-size:4px;line-height:125%;font-family:'Liberation Sans';-inkscape-font-specification:'Liberation Sans';text-align:start;letter-spacing:0px;word-spacing:0px;writing-mode:lr-tb;text-anchor:start;fill:#000000;fill-opacity:1;stroke:none;stroke-width:0.64015961"><tspan
         x="124"
         y="32"
         id="tspan3953-2"
         style="stroke-width:0.64015961">Bevel opacity : 20 / 10</tspan></text>
    <text
       x="124"
       y="8"
       id="text3955-7"
       xml:space="preserve"
       style="font-style:normal;font-variant:normal;font-weight:normal;font-stretch:normal;font-size:4px;line-height:125%;font-family:'Liberation Sans';-inkscape-font-specification:'Liberation Sans';text-align:start;letter-spacing:0px;word-spacing:0px;writing-mode:lr-tb;text-anchor:start;fill:#000000;fill-opacity:1;stroke:none;stroke-width:0.64015961"><tspan
         x="124"
         y="8"
         id="tspan3957-0"
         style="stroke-width:0.64015961">Bevel opacity : 75 / 15</tspan></text>
    <path
       inkscape:connector-curvature="0"
       d="m 59.46875,25.96875 a 0.98822587,0.98822587 0 0 0 0,0.03125 c -3.03e-4,3.2e-5 -0.187201,-5.9e-5 -0.1875,0 -2.99e-4,5.9e-5 -0.155958,0.06241 -0.15625,0.0625 -2.92e-4,8.6e-5 -0.187217,0.06239 -0.1875,0.0625 -2.83e-4,1.11e-4 -0.155978,0.06236 -0.15625,0.0625 -2.72e-4,1.36e-4 -0.155991,0.09359 -0.15625,0.09375 -2.59e-4,1.6e-4 -0.156006,0.09357 -0.15625,0.09375 -2.44e-4,1.82e-4 -0.124774,0.09355 -0.125,0.09375 -1.98e-4,1.78e-4 -0.06945,0.101121 -0.09375,0.125 -0.0035,0.0034 -0.03122,-2.8e-5 -0.03125,0 L 48,36.84375 37.75,26.59375 C 37.749861,26.593611 37.68765,26.50013 37.6875,26.5 37.687353,26.49987 37.5939,26.43762 37.59375,26.4375 37.593596,26.437378 37.50016,26.37511 37.5,26.375 c -1.61e-4,-1.13e-4 -0.09358,-0.0624 -0.09375,-0.0625 -1.67e-4,-1.03e-4 -0.09358,-0.06241 -0.09375,-0.0625 -1.73e-4,-9.3e-5 -0.124822,-0.06242 -0.125,-0.0625 -1.78e-4,-8.3e-5 -0.09357,-0.03118 -0.09375,-0.03125 -1.83e-4,-7.3e-5 -0.09356,-0.06244 -0.09375,-0.0625 -1.86e-4,-6.2e-5 -0.12481,-0.0312 -0.125,-0.03125 -1.9e-4,-5.1e-5 -0.124808,-0.03121 -0.125,-0.03125 -1.92e-4,-4e-5 -0.09356,2.9e-5 -0.09375,0 -1.94e-4,-2.9e-5 -0.124804,-0.03123 -0.125,-0.03125 -1.96e-4,-1.8e-5 -0.09355,7e-6 -0.09375,0 -1.96e-4,-7e-6 -0.124804,-5e-6 -0.125,0 -1.96e-4,5e-6 -0.124804,-1.6e-5 -0.125,0 -1.37e-4,1.1e-5 -0.02905,0.02752 -0.0625,0.03125 -0.01434,0.0016 -0.03119,-8e-6 -0.03125,0 -0.03815,0.0057 -0.156016,-4.5e-5 -0.15625,0 -2.8e-4,5.4e-5 -0.155975,0.06242 -0.15625,0.0625 -2.75e-4,7.7e-5 -0.155983,0.03115 -0.15625,0.03125 -2.67e-4,10e-5 -0.155992,0.06238 -0.15625,0.0625 -2.58e-4,1.22e-4 -0.156003,0.09361 -0.15625,0.09375 -2.47e-4,1.43e-4 -0.124766,0.09359 -0.125,0.09375 -2.34e-4,1.64e-4 -0.124781,0.09357 -0.125,0.09375 -2.19e-4,1.83e-4 -0.124797,0.09355 -0.125,0.09375 a 0.98822587,0.98822587 0 0 0 0,0.03125 l -9.34375,9.3125 v 0.03125 c -0.01913,0.01939 -0.06241,0.0624 -0.0625,0.0625 -1.17e-4,1.25e-4 -0.06239,0.06237 -0.0625,0.0625 -1.11e-4,1.3e-4 -0.0624,0.06236 -0.0625,0.0625 -1.04e-4,1.36e-4 -0.0624,0.09361 -0.0625,0.09375 -9.7e-5,1.41e-4 -0.06241,0.0936 -0.0625,0.09375 -9e-5,1.46e-4 -0.06242,0.06235 -0.0625,0.0625 -8.2e-5,1.5e-4 -0.03118,0.0936 -0.03125,0.09375 -7.5e-5,1.54e-4 -0.03118,0.09359 -0.03125,0.09375 -6.7e-5,1.57e-4 -0.06244,0.09359 -0.0625,0.09375 -5.9e-5,1.61e-4 -0.0312,0.09359 -0.03125,0.09375 -5.1e-5,1.63e-4 4.3e-5,0.09358 0,0.09375 -4.3e-5,1.66e-4 -0.03122,0.09358 -0.03125,0.09375 -3.4e-5,1.68e-4 -0.03122,0.09358 -0.03125,0.09375 -2.6e-5,1.69e-4 1.7e-5,0.12483 0,0.125 -1.7e-5,1.7e-4 9e-6,0.09358 0,0.09375 -9e-6,1.71e-4 0,0.09358 0,0.09375 0,1.71e-4 -9e-6,0.09358 0,0.09375 9e-6,1.71e-4 -1.7e-5,0.09358 0,0.09375 1.7e-5,1.7e-4 -2.6e-5,0.124831 0,0.125 2.6e-5,1.69e-4 0.03122,0.09358 0.03125,0.09375 3.4e-5,1.68e-4 0.03121,0.09358 0.03125,0.09375 4.3e-5,1.66e-4 -5.1e-5,0.09359 0,0.09375 5.1e-5,1.63e-4 0.03119,0.09359 0.03125,0.09375 5.9e-5,1.61e-4 0.06243,0.09359 0.0625,0.09375 6.7e-5,1.57e-4 0.03118,0.0936 0.03125,0.09375 7.5e-5,1.54e-4 0.03117,0.0936 0.03125,0.09375 8.2e-5,1.5e-4 0.06241,0.06235 0.0625,0.0625 9e-5,1.46e-4 0.0624,0.09361 0.0625,0.09375 9.7e-5,1.41e-4 0.0624,0.09361 0.0625,0.09375 1.04e-4,1.36e-4 0.06239,0.06237 0.0625,0.0625 1.11e-4,1.3e-4 0.06238,0.06238 0.0625,0.0625 9e-5,9.6e-5 0.04337,0.04311 0.0625,0.0625 0.0057,0.0058 -2.8e-5,0.03122 0,0.03125 L 35.84375,49 25.59375,59.21875 V 59.25 c -0.01913,0.01939 -0.06241,0.0624 -0.0625,0.0625 -1.17e-4,1.25e-4 -0.06239,0.06237 -0.0625,0.0625 -1.11e-4,1.3e-4 -0.0624,0.06236 -0.0625,0.0625 -1.04e-4,1.36e-4 -0.0624,0.09361 -0.0625,0.09375 -9.7e-5,1.41e-4 -0.06241,0.0936 -0.0625,0.09375 -9e-5,1.46e-4 -0.06242,0.06235 -0.0625,0.0625 -8.2e-5,1.5e-4 -0.03118,0.0936 -0.03125,0.09375 -7.5e-5,1.54e-4 -0.03118,0.09359 -0.03125,0.09375 -6.7e-5,1.57e-4 -0.06244,0.09359 -0.0625,0.09375 -5.9e-5,1.61e-4 -0.0312,0.09359 -0.03125,0.09375 -5.1e-5,1.63e-4 4.3e-5,0.09358 0,0.09375 -4.3e-5,1.66e-4 -0.03122,0.09358 -0.03125,0.09375 -3.4e-5,1.68e-4 -0.03122,0.09358 -0.03125,0.09375 -2.6e-5,1.69e-4 1.7e-5,0.12483 0,0.125 -1.7e-5,1.7e-4 9e-6,0.09358 0,0.09375 -9e-6,1.71e-4 0,0.09358 0,0.09375 0,1.71e-4 -9e-6,0.09358 0,0.09375 9e-6,1.71e-4 -1.7e-5,0.09358 0,0.09375 1.7e-5,1.7e-4 -2.6e-5,0.124831 0,0.125 2.6e-5,1.69e-4 0.03122,0.09358 0.03125,0.09375 3.4e-5,1.68e-4 0.03121,0.09358 0.03125,0.09375 4.3e-5,1.66e-4 -5.1e-5,0.09359 0,0.09375 5.1e-5,1.63e-4 0.03119,0.09359 0.03125,0.09375 5.9e-5,1.61e-4 0.06243,0.09359 0.0625,0.09375 6.7e-5,1.57e-4 0.03118,0.0936 0.03125,0.09375 7.5e-5,1.54e-4 0.03117,0.0936 0.03125,0.09375 8.2e-5,1.5e-4 0.06241,0.06235 0.0625,0.0625 9e-5,1.46e-4 0.0624,0.09361 0.0625,0.09375 9.7e-5,1.41e-4 0.0624,0.09361 0.0625,0.09375 1.04e-4,1.36e-4 0.06239,0.06237 0.0625,0.0625 1.11e-4,1.3e-4 0.06238,0.06238 0.0625,0.0625 9e-5,9.6e-5 0.04337,0.04311 0.0625,0.0625 0.0057,0.0058 -2.8e-5,0.03122 0,0.03125 l 9.34375,9.3125 c 0.01939,0.01913 0.0624,0.06241 0.0625,0.0625 1.25e-4,1.17e-4 0.06237,0.06239 0.0625,0.0625 1.3e-4,1.11e-4 0.06236,0.0624 0.0625,0.0625 1.36e-4,1.04e-4 0.09361,0.0624 0.09375,0.0625 1.41e-4,9.7e-5 0.0936,0.06241 0.09375,0.0625 1.46e-4,9e-5 0.06235,0.06242 0.0625,0.0625 1.5e-4,8.2e-5 0.0936,0.03118 0.09375,0.03125 1.54e-4,7.5e-5 0.09359,0.03118 0.09375,0.03125 1.57e-4,6.7e-5 0.09359,0.06244 0.09375,0.0625 1.61e-4,5.9e-5 0.09359,0.0312 0.09375,0.03125 1.63e-4,5.1e-5 0.09358,-4.3e-5 0.09375,0 1.66e-4,4.3e-5 0.09358,0.03122 0.09375,0.03125 1.68e-4,3.4e-5 0.09358,0.03122 0.09375,0.03125 1.69e-4,2.6e-5 0.12483,-1.7e-5 0.125,0 1.7e-4,1.7e-5 0.09358,-9e-6 0.09375,0 1.71e-4,9e-6 0.09358,0 0.09375,0 1.71e-4,0 0.09358,9e-6 0.09375,0 1.71e-4,-9e-6 0.09358,1.7e-5 0.09375,0 1.7e-4,-1.7e-5 0.124831,2.6e-5 0.125,0 1.69e-4,-2.6e-5 0.09358,-0.03122 0.09375,-0.03125 1.68e-4,-3.4e-5 0.09358,-0.03121 0.09375,-0.03125 1.66e-4,-4.3e-5 0.09359,5.1e-5 0.09375,0 1.63e-4,-5.1e-5 0.09359,-0.03119 0.09375,-0.03125 1.61e-4,-5.9e-5 0.09359,-0.06243 0.09375,-0.0625 1.57e-4,-6.7e-5 0.0936,-0.03118 0.09375,-0.03125 1.54e-4,-7.5e-5 0.0936,-0.03117 0.09375,-0.03125 1.5e-4,-8.2e-5 0.06235,-0.06241 0.0625,-0.0625 1.46e-4,-9e-5 0.09361,-0.0624 0.09375,-0.0625 1.41e-4,-9.7e-5 0.09361,-0.0624 0.09375,-0.0625 1.36e-4,-1.04e-4 0.06237,-0.06239 0.0625,-0.0625 1.3e-4,-1.11e-4 0.06238,-0.06238 0.0625,-0.0625 9.6e-5,-9e-5 0.04311,-0.04337 0.0625,-0.0625 h 0.03125 L 48,61.15625 l 10.25,10.25 c 0.01939,0.01913 0.0624,0.06241 0.0625,0.0625 1.25e-4,1.17e-4 0.06237,0.06239 0.0625,0.0625 1.3e-4,1.11e-4 0.06236,0.0624 0.0625,0.0625 1.36e-4,1.04e-4 0.09361,0.0624 0.09375,0.0625 1.41e-4,9.7e-5 0.0936,0.06241 0.09375,0.0625 1.46e-4,9e-5 0.06235,0.06242 0.0625,0.0625 1.5e-4,8.2e-5 0.0936,0.03118 0.09375,0.03125 1.54e-4,7.5e-5 0.09359,0.03118 0.09375,0.03125 1.57e-4,6.7e-5 0.09359,0.06244 0.09375,0.0625 1.61e-4,5.9e-5 0.09359,0.0312 0.09375,0.03125 1.63e-4,5.1e-5 0.09358,-4.3e-5 0.09375,0 1.66e-4,4.3e-5 0.09358,0.03122 0.09375,0.03125 1.68e-4,3.4e-5 0.09358,0.03122 0.09375,0.03125 1.69e-4,2.6e-5 0.12483,-1.7e-5 0.125,0 1.7e-4,1.7e-5 0.09358,-9e-6 0.09375,0 1.71e-4,9e-6 0.09358,0 0.09375,0 1.71e-4,0 0.09358,9e-6 0.09375,0 1.71e-4,-9e-6 0.09358,1.7e-5 0.09375,0 1.7e-4,-1.7e-5 0.124831,2.6e-5 0.125,0 1.69e-4,-2.6e-5 0.09358,-0.03122 0.09375,-0.03125 1.68e-4,-3.4e-5 0.09358,-0.03121 0.09375,-0.03125 1.66e-4,-4.3e-5 0.09359,5.1e-5 0.09375,0 1.63e-4,-5.1e-5 0.09359,-0.03119 0.09375,-0.03125 1.61e-4,-5.9e-5 0.09359,-0.06243 0.09375,-0.0625 1.57e-4,-6.7e-5 0.0936,-0.03118 0.09375,-0.03125 1.54e-4,-7.5e-5 0.0936,-0.03117 0.09375,-0.03125 1.5e-4,-8.2e-5 0.06235,-0.06241 0.0625,-0.0625 1.46e-4,-9e-5 0.09361,-0.0624 0.09375,-0.0625 1.41e-4,-9.7e-5 0.09361,-0.0624 0.09375,-0.0625 1.36e-4,-1.04e-4 0.06237,-0.06239 0.0625,-0.0625 1.3e-4,-1.11e-4 0.06238,-0.06238 0.0625,-0.0625 9.6e-5,-9e-5 0.04311,-0.04337 0.0625,-0.0625 h 0.03125 l 9.3125,-9.3125 V 62.0625 c 0.01913,-0.01939 0.06241,-0.0624 0.0625,-0.0625 1.17e-4,-1.25e-4 0.06239,-0.06237 0.0625,-0.0625 1.11e-4,-1.3e-4 0.0624,-0.06236 0.0625,-0.0625 1.04e-4,-1.36e-4 0.0624,-0.09361 0.0625,-0.09375 9.7e-5,-1.41e-4 0.06241,-0.0936 0.0625,-0.09375 9e-5,-1.46e-4 0.06242,-0.06235 0.0625,-0.0625 8.2e-5,-1.5e-4 0.03118,-0.0936 0.03125,-0.09375 7.5e-5,-1.54e-4 0.03118,-0.09359 0.03125,-0.09375 6.7e-5,-1.57e-4 0.06244,-0.09359 0.0625,-0.09375 5.9e-5,-1.61e-4 0.0312,-0.09359 0.03125,-0.09375 5.1e-5,-1.63e-4 -4.3e-5,-0.09358 0,-0.09375 4.3e-5,-1.66e-4 0.03122,-0.09358 0.03125,-0.09375 3.4e-5,-1.68e-4 0.03122,-0.09358 0.03125,-0.09375 2.6e-5,-1.69e-4 -1.7e-5,-0.12483 0,-0.125 1.7e-5,-1.7e-4 -9e-6,-0.09358 0,-0.09375 9e-6,-1.71e-4 0,-0.09358 0,-0.09375 0,-1.71e-4 9e-6,-0.09358 0,-0.09375 -9e-6,-1.71e-4 1.7e-5,-0.09358 0,-0.09375 -1.7e-5,-1.7e-4 2.6e-5,-0.124831 0,-0.125 -2.6e-5,-1.69e-4 -0.03122,-0.09358 -0.03125,-0.09375 -3.4e-5,-1.68e-4 -0.03121,-0.09358 -0.03125,-0.09375 -4.3e-5,-1.66e-4 5.1e-5,-0.09359 0,-0.09375 -5.1e-5,-1.63e-4 -0.03119,-0.09359 -0.03125,-0.09375 -5.9e-5,-1.61e-4 -0.06243,-0.09359 -0.0625,-0.09375 -6.7e-5,-1.57e-4 -0.03118,-0.0936 -0.03125,-0.09375 -7.5e-5,-1.54e-4 -0.03117,-0.0936 -0.03125,-0.09375 -8.2e-5,-1.5e-4 -0.06241,-0.06235 -0.0625,-0.0625 -9e-5,-1.46e-4 -0.0624,-0.09361 -0.0625,-0.09375 -9.7e-5,-1.41e-4 -0.0624,-0.09361 -0.0625,-0.09375 -1.04e-4,-1.36e-4 -0.06239,-0.06237 -0.0625,-0.0625 -1.11e-4,-1.3e-4 -0.06238,-0.06238 -0.0625,-0.0625 -9e-5,-9.6e-5 -0.04337,-0.04311 -0.0625,-0.0625 l -10.25,-10.25 10.25,-10.25 c 0.01913,-0.01939 0.06241,-0.0624 0.0625,-0.0625 1.17e-4,-1.25e-4 0.06239,-0.06237 0.0625,-0.0625 1.11e-4,-1.3e-4 0.0624,-0.06236 0.0625,-0.0625 1.04e-4,-1.36e-4 0.0624,-0.09361 0.0625,-0.09375 9.7e-5,-1.41e-4 0.06241,-0.0936 0.0625,-0.09375 9e-5,-1.46e-4 0.06242,-0.06235 0.0625,-0.0625 8.2e-5,-1.5e-4 0.03118,-0.0936 0.03125,-0.09375 7.5e-5,-1.54e-4 0.03118,-0.09359 0.03125,-0.09375 6.7e-5,-1.57e-4 0.06244,-0.09359 0.0625,-0.09375 5.9e-5,-1.61e-4 0.0312,-0.09359 0.03125,-0.09375 5.1e-5,-1.63e-4 -4.3e-5,-0.09358 0,-0.09375 4.3e-5,-1.66e-4 0.03122,-0.09358 0.03125,-0.09375 3.4e-5,-1.68e-4 0.03122,-0.09358 0.03125,-0.09375 2.6e-5,-1.69e-4 -1.7e-5,-0.12483 0,-0.125 1.7e-5,-1.7e-4 -9e-6,-0.09358 0,-0.09375 9e-6,-1.71e-4 0,-0.09358 0,-0.09375 0,-1.71e-4 9e-6,-0.09358 0,-0.09375 -9e-6,-1.71e-4 1.7e-5,-0.09358 0,-0.09375 -1.7e-5,-1.7e-4 2.6e-5,-0.124831 0,-0.125 -2.6e-5,-1.69e-4 -0.03122,-0.09358 -0.03125,-0.09375 -3.4e-5,-1.68e-4 -0.03121,-0.09358 -0.03125,-0.09375 -4.3e-5,-1.66e-4 5.1e-5,-0.09359 0,-0.09375 -5.1e-5,-1.63e-4 -0.03119,-0.09359 -0.03125,-0.09375 -5.9e-5,-1.61e-4 -0.06243,-0.09359 -0.0625,-0.09375 -6.7e-5,-1.57e-4 -0.03118,-0.0936 -0.03125,-0.09375 -7.5e-5,-1.54e-4 -0.03117,-0.0936 -0.03125,-0.09375 -8.2e-5,-1.5e-4 -0.06241,-0.06235 -0.0625,-0.0625 -9e-5,-1.46e-4 -0.0624,-0.09361 -0.0625,-0.09375 -9.7e-5,-1.41e-4 -0.0624,-0.09361 -0.0625,-0.09375 -1.04e-4,-1.36e-4 -0.06239,-0.06237 -0.0625,-0.0625 -1.11e-4,-1.3e-4 -0.06238,-0.06238 -0.0625,-0.0625 -9e-5,-9.6e-5 -0.04337,-0.04311 -0.0625,-0.0625 l -9.3125,-9.34375 c -3.3e-5,-3.5e-5 -0.02387,0.0075 -0.03125,0 -0.02216,-0.02237 -0.03115,-0.0624 -0.03125,-0.0625 -1.39e-4,-1.33e-4 -0.0936,-0.09362 -0.09375,-0.09375 -1.46e-4,-1.25e-4 -0.0936,-0.06238 -0.09375,-0.0625 -1.53e-4,-1.16e-4 -0.09359,-0.06239 -0.09375,-0.0625 -1.59e-4,-1.07e-4 -0.09358,-0.0624 -0.09375,-0.0625 -1.65e-4,-9.8e-5 -0.09358,-0.06241 -0.09375,-0.0625 -1.7e-4,-8.9e-5 -0.09358,-0.03117 -0.09375,-0.03125 -1.75e-4,-7.9e-5 -0.124821,-0.03118 -0.125,-0.03125 -1.79e-4,-6.9e-5 -0.09357,-0.06244 -0.09375,-0.0625 -1.83e-4,-5.9e-5 -0.09356,-0.0312 -0.09375,-0.03125 -1.86e-4,-4.8e-5 -0.124812,3.8e-5 -0.125,0 -1.88e-4,-3.8e-5 -0.09356,-0.03122 -0.09375,-0.03125 -1.9e-4,-2.7e-5 -0.124809,-0.03123 -0.125,-0.03125 -1.91e-4,-1.6e-5 -0.09356,6e-6 -0.09375,0 -1.92e-4,-6e-6 -0.124808,-5e-6 -0.125,0 -1.92e-4,5e-6 -0.124809,-1.6e-5 -0.125,0 z"
       id="path3734"
       style="display:inline;opacity:0.1;fill:#000000;fill-opacity:1;stroke:none;stroke-width:0.64015961" />
    <path
       inkscape:connector-curvature="0"
       d="M 36.21875,27 A 0.99834447,0.99834447 0 0 0 35.625,27.28125 L 26.28125,36.625 a 0.99834447,0.99834447 0 0 0 0,1.4375 L 37.21875,49 26.28125,59.9375 a 0.99834447,0.99834447 0 0 0 0,1.4375 l 9.34375,9.34375 a 0.99834447,0.99834447 0 0 0 1.4375,0 L 48,59.78125 58.9375,70.71875 a 0.99834447,0.99834447 0 0 0 1.4375,0 L 69.71875,61.375 a 0.99834447,0.99834447 0 0 0 0,-1.4375 L 58.78125,49 69.71875,38.0625 a 0.99834447,0.99834447 0 0 0 0,-1.4375 L 60.375,27.28125 a 0.99834447,0.99834447 0 0 0 -1.4375,0 L 48,38.21875 37.0625,27.28125 A 0.99834447,0.99834447 0 0 0 36.21875,27 Z"
       id="path3730"
       style="display:inline;opacity:0.15;fill:#000000;fill-opacity:1;stroke:none;stroke-width:0.64015961" />
    <path
       d="M 26.999999,60.666667 36.333333,70 48,58.333333 59.666667,70 69,60.666667 57.333333,49 69,37.333333 59.666667,28 48,39.666667 36.333333,28 26.999999,37.333333 38.666667,49 Z"
       inkscape:connector-curvature="0"
       id="path3724"
       style="display:inline;opacity:0.3;fill:#000000;fill-opacity:1;stroke:none;stroke-width:0.64015961" />
    <path
       d="M 26.999999,59.666667 36.333333,69 48,57.333333 59.666667,69 69,59.666667 57.333333,48 69,36.333333 59.666667,27 48,38.666667 36.333333,27 26.999999,36.333333 38.666667,48 Z"
       inkscape:connector-curvature="0"
       id="path2929"
       style="display:inline;fill:url(#linearGradient3702);fill-opacity:1;stroke:none;stroke-width:0.64015961" />
    <path
       d="m 36.34375,27 -9.343751,9.34375 0.5,0.5 L 36.34375,28 48,39.65625 59.65625,28 68.5,36.84375 69,36.34375 59.65625,27 48,38.65625 Z m 1.8125,21.5 -11.156251,11.15625 0.5,0.5 L 38.65625,49 Z m 19.6875,0 -0.5,0.5 11.15625,11.15625 0.5,-0.5 z"
       inkscape:connector-curvature="0"
       id="path3704"
       style="display:inline;opacity:0.3;fill:#ffffff;fill-opacity:1;stroke:none;stroke-width:0.64015961" />
    <path
       d="m 27.499999,35.84375 -0.5,0.5 L 38.15625,47.5 l 0.5,-0.5 z M 68.5,35.84375 57.34375,47 l 0.5,0.5 L 69,36.34375 Z M 48,56.34375 36.34375,68 l -8.843751,-8.84375 -0.5,0.5 L 36.34375,69 48,57.34375 59.65625,69 69,59.65625 68.5,59.15625 59.65625,68 Z"
       inkscape:connector-curvature="0"
       id="path3714"
       style="display:inline;opacity:0.1;fill:#000000;fill-opacity:1;stroke:none;stroke-width:0.64015961" />
  </g>
  <g
     id="g4746"
     transform="matrix(1.5214101,0,0,1.5214101,-24.408038,-25.890797)"
     style="stroke-width:0.65728498">
    <path
       d="m 40.9375,23 c -4.843952,0 -9.713417,1.820697 -13.40625,5.5 -7.385878,7.358815 -7.385877,19.391184 0,26.75 6.235791,6.212947 15.784038,7.171398 23.0625,2.875 0.411355,0.02642 0.844548,0.03012 1.15625,0.09375 0.132966,0.02714 0.232013,0.08487 0.34375,0.125 1.88e-4,0.194814 -0.0049,0.45197 0,0.875 0.01088,0.930421 0.340094,2.249073 1.25,3.40625 0.0058,0.0074 -0.0059,0.02388 0,0.03125 0.0097,0.02119 0.02011,0.04203 0.03125,0.0625 0.03435,0.186964 0.121037,0.360345 0.25,0.5 l 10.375,10.5 c 0.03006,0.02257 0.06136,0.04344 0.09375,0.0625 0.04914,0.03592 0.101434,0.0673 0.15625,0.09375 0.114588,0.101855 0.240781,0.242786 0.4375,0.375 0.41011,0.275632 1.022437,0.595464 1.78125,0.71875 1.553731,0.252438 3.511847,-0.331059 5.34375,-2.15625 1.834352,-1.827629 2.413005,-3.790593 2.15625,-5.34375 -0.240365,-1.45401 -1.113301,-2.274545 -1.25,-2.40625 -0.0019,-0.0018 0.0016,-0.0297 0,-0.03125 V 65 L 62.40625,54.5625 c -0.06587,-0.07279 -0.07204,-0.07517 -0.03125,-0.03125 -1.277141,-1.374959 -3.009631,-1.548902 -4.0625,-1.5625 -0.411495,-0.0053 -0.642888,-6.89e-4 -0.84375,0 C 57.43544,52.867372 57.398583,52.777817 57.375,52.65625 57.313315,52.338275 57.276618,51.908324 57.25,51.5 61.564838,44.243482 60.61263,34.714768 54.375,28.5 50.677933,24.816479 45.781127,23 40.9375,23 Z M 41,32.625 c 5.156365,0 9.3125,4.12946 9.3125,9.25 0,5.120544 -4.15613,9.25 -9.3125,9.25 -5.156756,3e-6 -9.28125,-4.122074 -9.28125,-9.25 0,-2.55645 1.073419,-4.892063 2.75,-6.5625 C 36.149205,33.638202 38.403641,32.625 41,32.625 Z"
       id="path3931"
       style="display:inline;opacity:0.1;fill:#000000;fill-opacity:1;stroke:none;stroke-width:0.65728498"
       inkscape:connector-curvature="0"
       sodipodi:nodetypes="sssccccccccccccssscccccccccssssssss" />
    <path
       d="m 40.9375,24 c -4.591276,0 -9.18841,1.732481 -12.6875,5.21875 -6.999344,6.973697 -6.999343,18.338802 0,25.3125 6.002554,5.980564 15.228555,6.850372 22.15625,2.5625 0.489012,0.03056 1.040205,0.05601 1.53125,0.15625 0.58132,0.118672 1.029171,0.368578 1.0625,0.40625 0.01179,0.01333 0.06933,0.09876 0.09375,0.375 0.02442,0.276244 -0.0056,0.707659 0,1.1875 0.01103,0.94295 0.217153,2.253103 1.28125,3.25 L 54.34375,62.5 64.71875,73 H 64.75 c 0.02679,0.02773 0.712218,0.77983 1.875,0.96875 1.18509,0.192544 2.809608,-0.221937 4.46875,-1.875 1.658758,-1.652679 2.070454,-3.286413 1.875,-4.46875 -0.189053,-1.143615 -0.89012,-1.829546 -0.9375,-1.875 L 72,65.71875 61.65625,55.25 c -0.01094,-0.01209 -0.02023,-0.01938 -0.03125,-0.03125 -1.003651,-1.080522 -2.357535,-1.237666 -3.3125,-1.25 -0.482726,-0.0062 -0.907386,0.02483 -1.1875,0 C 56.844886,53.94392 56.763184,53.88658 56.75,53.875 56.71414,53.84351 56.486189,53.416908 56.375,52.84375 56.281078,52.3596 56.247801,51.804778 56.21875,51.3125 60.523781,44.407739 59.659762,35.200258 53.65625,29.21875 50.154919,25.730248 45.528776,24 40.9375,24 Z M 41,31.625 c 5.695303,0 10.3125,4.583807 10.3125,10.25 0,5.666196 -4.617193,10.25 -10.3125,10.25 -5.695299,3e-6 -10.28125,-4.580436 -10.28125,-10.25 0,-2.833402 1.171882,-5.428696 3.03125,-7.28125 C 35.610543,32.740024 38.142361,31.625 41,31.625 Z"
       id="path3927"
       style="display:inline;opacity:0.15;fill:#000000;fill-opacity:1;stroke:none;stroke-width:0.65728498"
       inkscape:connector-curvature="0"
       sodipodi:nodetypes="ssscccccccccssscccccscscssssssss" />
    <path
       d="m 40.9375,25 c -4.337728,0 -8.661532,1.6424 -11.96875,4.9375 -6.614435,6.590199 -6.614434,17.2848 0,23.875 5.766309,5.745185 14.64906,6.521844 21.21875,2.25 1.116703,0.05582 2.922607,0.214234 3.5625,0.9375 0.871276,0.984794 -0.358454,3.280341 1.3125,4.78125 l 10.375,10.53125 c 0,0 1.934922,2.054077 4.9375,-0.9375 3.00258,-2.991577 0.9375,-4.90625 0.9375,-4.90625 L 60.90625,55.9375 C 59.399818,54.272668 57.082164,55.49308 56.09375,54.625 55.367821,53.987453 55.243513,52.206365 55.1875,51.09375 59.475054,44.548134 58.703812,35.682678 52.9375,29.9375 49.630282,26.6424 45.275228,25 40.9375,25 Z M 41,30.625 c 6.236149,0 11.3125,5.036699 11.3125,11.25 0,6.213304 -5.076348,11.25 -11.3125,11.25 -6.236145,3e-6 -11.28125,-5.036696 -11.28125,-11.25 0,-3.106651 1.267675,-5.962669 3.3125,-8 2.044825,-2.037333 4.850676,-3.25 7.96875,-3.25 z"
       inkscape:connector-curvature="0"
       id="path3921"
       style="display:inline;opacity:0.3;fill:#000000;fill-opacity:1;stroke:none;stroke-width:0.65728498"
       sodipodi:nodetypes="sssccccsccccssssssss" />
    <rect
       width="16"
       height="16"
       x="0"
       y="104"
       transform="matrix(0,1,1,0,0,0)"
       id="rect3897"
       style="color:#000000;display:inline;overflow:visible;visibility:visible;fill:url(#linearGradient3905);fill-opacity:1;fill-rule:nonzero;stroke:none;stroke-width:1.31456995;marker:none;enable-background:accumulate" />
    <text
       x="104"
       y="48"
       id="text3907"
       xml:space="preserve"
       style="font-style:normal;font-variant:normal;font-weight:normal;font-stretch:normal;font-size:4px;line-height:125%;font-family:'Liberation Sans';-inkscape-font-specification:'Liberation Sans';text-align:start;letter-spacing:0px;word-spacing:0px;writing-mode:lr-tb;text-anchor:start;fill:#000000;fill-opacity:1;stroke:none;stroke-width:0.65728498"><tspan
         x="104"
         y="48"
         id="tspan3909"
         style="stroke-width:0.65728498">Shadow opacity : 30, 15, 10, (8)</tspan></text>
    <rect
       width="16"
       height="16"
       x="-40"
       y="104"
       transform="rotate(-90)"
       id="rect3911"
       style="color:#000000;display:inline;overflow:visible;visibility:visible;fill:url(#linearGradient3913);fill-opacity:1;fill-rule:nonzero;stroke:none;stroke-width:1.31456995;marker:none;enable-background:accumulate" />
    <text
       x="124"
       y="32"
       id="text3951"
       xml:space="preserve"
       style="font-style:normal;font-variant:normal;font-weight:normal;font-stretch:normal;font-size:4px;line-height:125%;font-family:'Liberation Sans';-inkscape-font-specification:'Liberation Sans';text-align:start;letter-spacing:0px;word-spacing:0px;writing-mode:lr-tb;text-anchor:start;fill:#000000;fill-opacity:1;stroke:none;stroke-width:0.65728498"><tspan
         x="124"
         y="32"
         id="tspan3953"
         style="stroke-width:0.65728498">Bevel opacity : 30 / 10</tspan></text>
    <text
       x="124"
       y="8"
       id="text3955"
       xml:space="preserve"
       style="font-style:normal;font-variant:normal;font-weight:normal;font-stretch:normal;font-size:4px;line-height:125%;font-family:'Liberation Sans';-inkscape-font-specification:'Liberation Sans';text-align:start;letter-spacing:0px;word-spacing:0px;writing-mode:lr-tb;text-anchor:start;fill:#000000;fill-opacity:1;stroke:none;stroke-width:0.65728498"><tspan
         x="124"
         y="8"
         id="tspan3957"
         style="stroke-width:0.65728498">Bevel opacity : 75 / 15</tspan></text>
    <path
       d="m 40.9375,24 c -4.337728,0 -8.661532,1.6424 -11.96875,4.9375 -6.614435,6.590199 -6.614434,17.2848 0,23.875 5.766309,5.745185 14.64906,6.521844 21.21875,2.25 1.116703,0.05582 2.922607,0.214234 3.5625,0.9375 0.871276,0.984794 -0.358454,3.280341 1.3125,4.78125 l 10.375,10.53125 c 0,0 1.934922,2.054077 4.9375,-0.9375 3.00258,-2.991577 0.9375,-4.90625 0.9375,-4.90625 L 60.90625,54.9375 C 59.399818,53.272668 57.082164,54.49308 56.09375,53.625 55.367821,52.987453 55.243513,51.206365 55.1875,50.09375 59.475054,43.548134 58.703812,34.682678 52.9375,28.9375 49.630282,25.6424 45.275228,24 40.9375,24 Z M 41,29.625 c 6.236149,0 11.3125,5.036699 11.3125,11.25 0,6.213304 -5.076348,11.25 -11.3125,11.25 -6.236145,3e-6 -11.28125,-5.036696 -11.28125,-11.25 0,-3.106651 1.267675,-5.962669 3.3125,-8 2.044825,-2.037333 4.850676,-3.25 7.96875,-3.25 z"
       inkscape:connector-curvature="0"
       id="Symbol"
       style="display:inline;fill:url(#linearGradient3018);fill-opacity:1;stroke:none;stroke-width:0.65728498"
       sodipodi:nodetypes="sssccccsccccssssssss" />
    <path
       d="m 40.9375,24 c -4.337728,0 -8.661532,1.6424 -11.96875,4.9375 -3.434453,3.421869 -5.069631,7.951631 -4.9375,12.4375 0.122341,-4.153494 1.757518,-8.26917 4.9375,-11.4375 C 32.275968,26.6424 36.599772,25 40.9375,25 c 4.337728,0 8.692782,1.6424 12,4.9375 3.155628,3.144062 4.815465,7.222337 4.96875,11.34375 C 58.004869,36.82428 56.349152,32.336648 52.9375,28.9375 49.630282,25.6424 45.275228,24 40.9375,24 Z M 29.75,41.375 c -0.0073,0.166448 -0.03125,0.331996 -0.03125,0.5 0,6.213304 5.045105,11.250003 11.28125,11.25 6.236152,0 11.3125,-5.036696 11.3125,-11.25 0,-0.168003 -0.0239,-0.333793 -0.03125,-0.5 -0.264313,5.980646 -5.213719,10.75 -11.28125,10.75 -6.067524,3e-6 -10.987286,-4.769354 -11.25,-10.75 z m 25.5,9.65625 c -0.01563,0.02413 -0.04674,0.03843 -0.0625,0.0625 0.05601,1.112615 0.180321,2.893703 0.90625,3.53125 0.988414,0.86808 3.306068,-0.352332 4.8125,1.3125 L 71.3125,66.46875 c 0,0 0.508047,0.479482 0.65625,1.3125 0.283099,-1.458991 -0.65625,-2.3125 -0.65625,-2.3125 L 60.90625,54.9375 C 59.399818,53.272668 57.082164,54.49308 56.09375,53.625 55.549303,53.14684 55.34262,52.03145 55.25,51.03125 Z"
       inkscape:connector-curvature="0"
       id="path3903"
       style="display:inline;opacity:0.75;fill:#ffffff;fill-opacity:1;stroke:none;stroke-width:0.65728498"
       sodipodi:nodetypes="sscssscsscssscsccccccccccc" />
    <path
       d="m 41,28.625 c -3.118074,0 -5.923925,1.212667 -7.96875,3.25 -2.044825,2.037331 -3.3125,4.893349 -3.3125,8 0,0.168004 0.02395,0.333793 0.03125,0.5 0.128337,-2.911434 1.347006,-5.572845 3.28125,-7.5 2.044825,-2.037333 4.850676,-3.25 7.96875,-3.25 6.067528,0 11.016937,4.769357 11.28125,10.75 0.0073,-0.166207 0.03125,-0.331996 0.03125,-0.5 0,-6.213301 -5.076351,-11.25 -11.3125,-11.25 z m 16.90625,11.65625 c -0.06806,3.07612 -0.967937,6.139613 -2.71875,8.8125 0.01354,0.268923 0.03345,0.584808 0.0625,0.90625 1.898624,-2.941899 2.781713,-6.345401 2.65625,-9.71875 z m -33.875,0.09375 c -0.132131,4.485869 1.503047,9.01563 4.9375,12.4375 5.766309,5.745185 14.64906,6.521844 21.21875,2.25 1.116703,0.05582 2.922607,0.214234 3.5625,0.9375 0.217819,0.246198 0.310405,0.560354 0.34375,0.9375 C 54.09685,56.155341 54.14207,55.443157 53.75,55 53.110107,54.276734 51.304203,54.11832 50.1875,54.0625 43.61781,58.334344 34.735059,57.557685 28.96875,51.8125 25.788769,48.64417 24.153591,44.528494 24.03125,40.375 Z m 30.0625,16.8125 c 0.04258,1.107232 -0.200918,2.543114 0.96875,3.59375 l 10.375,10.53125 c 0,0 1.934922,2.054077 4.9375,-0.9375 1.50129,-1.495789 1.734697,-2.709885 1.59375,-3.5625 -0.147068,0.719058 -0.610969,1.583321 -1.59375,2.5625 -3.002578,2.991577 -4.9375,0.9375 -4.9375,0.9375 L 55.0625,59.78125 C 54.227023,59.030795 54.104096,58.0721 54.09375,57.1875 Z"
       inkscape:connector-curvature="0"
       id="path3912"
       style="display:inline;opacity:0.15;fill:#000000;fill-opacity:1;stroke:none;stroke-width:0.65728498"
       sodipodi:nodetypes="ssscsscsscccccscccccsccccscsccc" />
  </g>
</svg>
